<?xml version="1.0" standalone="no"?>
<!DOCTYPE svg PUBLIC "-//W3C//DTD SVG 20010904//EN"
 "http://www.w3.org/TR/2001/REC-SVG-20010904/DTD/svg10.dtd">
<svg version="1.0" xmlns="http://www.w3.org/2000/svg"
 width="260.000000pt" height="260.000000pt" viewBox="0 0 260.000000 260.000000"
 preserveAspectRatio="xMidYMid meet">
<metadata>
Created by potrace 1.11, written by Peter Selinger 2001-2013
</metadata>
<g transform="translate(0.000000,260.000000) scale(0.100000,-0.100000)"
fill="#000000" stroke="none">
<path d="M1487 1870 c-235 -247 -431 -450 -435 -450 -4 1 -104 117 -222 260
-161 194 -218 256 -226 247 -6 -7 -25 -37 -42 -68 l-31 -55 265 -252 c234
-221 268 -250 283 -239 40 28 981 840 981 846 -1 3 -33 41 -73 84 l-72 77
-428 -450z"/>
<path d="M1533 1403 c-208 -219 -401 -422 -429 -452 l-50 -53 -218 261 c-120
143 -221 261 -224 261 -4 0 -24 -29 -44 -65 l-37 -65 267 -253 266 -254 495
425 c273 233 497 428 499 432 3 7 -124 153 -138 158 -4 2 -178 -176 -387 -395z"/>
<path d="M1490 852 c-234 -246 -430 -447 -436 -447 -6 0 -108 116 -227 258
-243 290 -211 270 -270 165 l-27 -46 266 -253 c198 -188 269 -250 280 -243 45
31 983 841 983 849 0 6 -32 45 -72 87 l-72 77 -425 -447z"/>
</g>
</svg>
